<svg width="479" height="465" viewBox="0 0 479 465" fill="none" xmlns="http://www.w3.org/2000/svg">
<path d="M478.82 424.345C478.82 446.437 460.912 464.345 438.82 464.345H40C17.9086 464.345 0 446.437 0 424.345V40.655C0 18.5636 17.9086 0.654999 40 0.654999H81.04C103.131 0.654999 121.04 18.5636 121.04 40.655V175.145C121.04 197.237 138.949 215.145 161.04 215.145H321.34C343.431 215.145 361.34 197.237 361.34 175.145V40.655C361.34 18.5636 379.248 0.654999 401.34 0.654999H438.82C460.912 0.654999 478.82 18.5636 478.82 40.655V424.345Z" fill="#D9D9D9" fill-opacity="0.1"/>
</svg>
