<svg width="539" height="521" viewBox="0 0 539 521" fill="none" xmlns="http://www.w3.org/2000/svg">
<path d="M538.82 481C538.82 503.091 520.912 521 498.82 521H40.8203C18.7289 521 0.820312 503.091 0.820312 481V40C0.820312 17.9086 18.7289 0 40.8203 0H96.8203C118.912 0 136.82 17.9086 136.82 40V201C136.82 223.091 154.729 241 176.82 241H366.82C388.912 241 406.82 223.091 406.82 201V40C406.82 17.9086 424.729 0 446.82 0H498.82C520.912 0 538.82 17.9086 538.82 40V481Z" fill="#D9D9D9" fill-opacity="0.1"/>
</svg>
